<svg preserveAspectRatio="none" width="100%" height="100%" overflow="visible" style="display: block;" viewBox="0 0 130.484 11.571" fill="none" xmlns="http://www.w3.org/2000/svg">
<g id="&#208;&#155;&#208;&#190;&#208;&#179;&#208;&#190; &#208;&#161;&#208;&#177;&#208;&#181;&#209;&#128;&#208;&#163;&#208;&#189;&#208;&#184;&#208;&#178;&#208;&#181;&#209;&#128;&#209;&#129;&#208;&#184;&#209;&#130;&#208;&#181;&#209;&#130;">
<path id="Vector" d="M49.5747 7.85986L46.3482 2.40261H47.8747L50.2448 6.44834L52.1834 2.40261H53.5615L50.8631 7.92083C50.2642 9.13717 49.7037 9.45343 48.9564 9.45343C48.6669 9.45343 48.3769 9.39882 48.0999 9.29551V8.00042C48.3245 8.18259 48.6072 8.2815 48.8986 8.27985C49.1756 8.27985 49.4073 8.17612 49.5747 7.85986ZM60.233 6.35435H56.1974V9.3696H54.878V2.40261H56.1974V5.21125H60.233V2.40261H61.5524V9.3696H60.233V6.35435ZM65.0008 7.60669L69.0234 2.40261H70.4589V9.3696H69.1395V4.08678L65.0974 9.3696H63.6878V2.40261H65.0072V7.60669H65.0008ZM72.5956 9.36368V2.40261H75.7979C77.438 2.40261 78.2802 2.97966 78.2802 4.13377C78.2802 4.92971 77.9458 5.45808 77.1869 5.7375C78.0938 5.88907 78.5054 6.43606 78.5054 7.34081C78.5054 8.78027 77.4121 9.37003 75.618 9.37003L72.5956 9.36368ZM75.6051 5.34842C76.4344 5.34842 76.9621 5.00253 76.9621 4.40092C76.9621 3.84207 76.5694 3.54444 75.637 3.54444H73.9137V5.3425H75.6051V5.34842ZM75.7013 8.22184C76.7109 8.22184 77.1739 7.91194 77.1739 7.24978C77.1739 6.58763 76.6467 6.32048 75.7207 6.32048H73.9072V8.21549L75.7013 8.22184ZM84.9361 6.35774H81.5413V8.22565H85.4453V9.37003H80.227V2.40218H85.3292V3.54655H81.5413V5.20786H84.9361V6.35774ZM88.5363 7.1994V9.37003H87.2169V2.40218H89.6754C92.0054 2.40218 92.9965 3.18627 92.9965 4.76078C92.9965 6.38441 91.838 7.19898 89.6754 7.19898L88.5363 7.1994ZM88.5363 3.54571V6.0563H89.7721C90.9949 6.0563 91.6257 5.6795 91.6257 4.73115C91.6257 3.87382 91.0786 3.54571 89.7911 3.54571H88.5363ZM100.721 8.56943C100.356 8.98645 99.3896 9.43988 98.122 9.43988C95.7346 9.42803 94.1403 8.09145 94.1403 5.85435C94.1403 3.7684 95.7152 2.29295 98.1414 2.29295C99.2934 2.29295 100.145 2.63165 100.574 2.91573V4.63885C100.017 3.88949 99.1143 3.43563 98.1414 3.4297C96.541 3.4297 95.5551 4.40939 95.5551 5.86663C95.5551 7.21464 96.4258 8.27307 98.1155 8.30313C99.3961 8.30313 100.292 7.74682 100.727 7.04572L100.721 8.56943ZM103.646 7.60669L107.669 2.40261H109.104V9.3696H107.785V4.08678L103.736 9.3696H102.327V2.40261H103.646V7.60669ZM116.678 3.54528H114.194V9.3696H112.874V3.54528H110.428V2.40218H116.678V3.54528ZM122.715 6.35774H119.321V8.22565H123.224V9.37003H118.006V2.40218H123.108V3.54655H119.321V5.20786H122.715V6.35774ZM130.484 3.54528H127.999V9.3696H126.68V3.54528H124.234V2.40218H130.484V3.54528ZM34.4921 3.46019L36.1606 2.29846H30.5886V9.26418H36.1598V8.10838H32.1803V6.31964H35.5747V5.16383H32.1803V3.46019H34.493H34.4921ZM26.3744 5.01777H24.4423V3.46019H27.5338L29.2018 2.29846H22.8518V9.26418H26.1751C28.0364 9.26418 29.1056 8.4674 29.1056 7.07408C29.1056 5.74766 28.1326 5.01777 26.3744 5.01777ZM26.0974 8.10838H24.4423V6.17992H26.1039C27.1152 6.17992 27.5851 6.50211 27.5851 7.14733C27.5791 7.79805 27.0829 8.10838 26.0974 8.10838ZM40.673 2.29846H37.6397V9.26418H39.2301V7.29339H40.673C42.6116 7.29339 43.8163 6.33234 43.8163 4.79254C43.8163 3.25358 42.6116 2.29846 40.673 2.29846ZM40.6406 6.13124H39.2306V3.46019H40.6415C41.6589 3.46019 42.2194 3.93479 42.2194 4.79889C42.2194 5.66256 41.658 6.13124 40.6406 6.13124ZM20.1189 7.75571C19.6953 7.97169 19.2242 8.08246 18.7468 8.07832C17.3109 8.07832 16.274 7.11092 16.274 5.77857C16.274 4.44622 17.3173 3.47882 18.7472 3.47882C19.2633 3.4713 19.7692 3.62002 20.1961 3.90473L21.3365 3.10752L21.2588 3.04698C20.5957 2.49321 19.7004 2.20108 18.6829 2.20108C17.5814 2.20108 16.5765 2.55417 15.8615 3.19262C15.1466 3.83191 14.741 4.74427 14.741 5.74216C14.741 6.73962 15.1337 7.66426 15.8551 8.32176C16.5765 8.97883 17.5749 9.34971 18.67 9.34971C19.8164 9.34971 20.8144 8.97291 21.4975 8.28493L20.4667 7.56731L20.1189 7.75571ZM12.2505 5.78492C12.2505 5.43775 12.2186 5.09144 12.1543 4.75062L10.834 5.66934V5.79085C10.834 8.24894 8.72756 10.2447 6.12535 10.2506C3.52356 10.2566 1.41107 8.26079 1.4046 5.80312C1.4046 3.33318 3.51019 1.3374 6.11931 1.3374C7.07243 1.3374 7.99967 1.6054 8.78581 2.11641L9.97711 1.28872C7.34297 -0.724839 3.48473 -0.335337 1.35929 2.15282C-0.766145 4.64097 -0.353656 8.279 2.28049 10.287C4.91463 12.2947 8.77287 11.9052 10.8918 9.41702C11.7676 8.4017 12.2487 7.11509 12.2505 5.78492Z" fill="var(--fill-0, #283438)"/>
<path id="Vector_2" d="M11.0552 2.21629C11.3438 2.57072 11.5899 2.95655 11.7887 3.36616L6.21144 7.25398L3.87976 5.87294L3.87976 4.21206L6.21144 5.59309L11.0552 2.21629Z" fill="var(--fill-0, #283438)"/>
</g>
</svg>
