<svg preserveAspectRatio="none" width="100%" height="100%" overflow="visible" style="display: block;" viewBox="0 0 322 210.157" fill="none" xmlns="http://www.w3.org/2000/svg">
<g id="Union" filter="url(#filter0_i_0_28)">
<path d="M308.16 1.53891C314.05 -2.4469 322 1.77284 322 8.88461V193.367C322 193.666 321.985 193.959 321.958 194.247V201.288C321.958 206.186 317.987 210.157 313.089 210.157H8.91602C4.01774 210.157 0.0461067 206.186 0.0458984 201.288V194.28C0.0164988 193.982 7.48527e-06 193.677 0 193.367V8.88461C2.05938e-07 1.77294 7.94999 -2.4466 13.8398 1.53891L150.146 93.7801C151.499 94.6962 152.997 95.5106 154.632 95.5106H167.368C169.003 95.5106 170.501 94.6963 171.854 93.7801L308.16 1.53891Z" fill="url(#paint0_linear_0_28)"/>
</g>
<defs>
<filter id="filter0_i_0_28" x="0" y="0" width="322" height="210.328" filterUnits="userSpaceOnUse" color-interpolation-filters="sRGB">
<feFlood flood-opacity="0" result="BackgroundImageFix"/>
<feBlend mode="normal" in="SourceGraphic" in2="BackgroundImageFix" result="shape"/>
<feColorMatrix in="SourceAlpha" type="matrix" values="0 0 0 0 0 0 0 0 0 0 0 0 0 0 0 0 0 0 127 0" result="hardAlpha"/>
<feOffset dy="0.532161"/>
<feGaussianBlur stdDeviation="0.0854062"/>
<feComposite in2="hardAlpha" operator="arithmetic" k2="-1" k3="1"/>
<feColorMatrix type="matrix" values="0 0 0 0 1 0 0 0 0 1 0 0 0 0 1 0 0 0 1 0"/>
<feBlend mode="normal" in2="shape" result="effect1_innerShadow_0_28"/>
</filter>
<linearGradient id="paint0_linear_0_28" x1="161" y1="-11.236" x2="177.102" y2="221.924" gradientUnits="userSpaceOnUse">
<stop offset="0.403846" stop-color="#9DF19D"/>
<stop offset="1" stop-color="#21A038"/>
</linearGradient>
</defs>
</svg>
