<svg width="400" height="37" viewBox="0 0 400 37" fill="none" xmlns="http://www.w3.org/2000/svg">

<g id="1440 &#208;&#154;&#208;&#176;&#209;&#128;&#209;&#140;&#208;&#181;&#209;&#128;&#208;&#176; &#208;&#177;&#209;&#131;&#208;&#180;&#209;&#131;&#209;&#137;&#208;&#181;&#208;&#179;&#208;&#190;" clip-path="url(#clip0_0_1)">

<g id="Main Display">
<g id="Logos">
<g id="&#208;&#155;&#208;&#190;&#208;&#179;&#208;&#190; &#208;&#161;&#208;&#177;&#208;&#181;&#209;&#128;&#208;&#163;&#208;&#189;&#208;&#184;&#208;&#178;&#208;&#181;&#209;&#128;&#209;&#129;&#208;&#184;&#209;&#130;&#208;&#181;&#209;&#130;&#208;&#176;">
<g id="&#208;&#161;&#208;&#177;&#208;&#181;&#209;&#128;&#208;&#163;&#208;&#189;&#208;&#184;&#208;&#178;&#208;&#181;&#209;&#128;&#209;&#129;&#208;&#184;&#209;&#130;&#208;&#181;&#209;&#130;">
<path id="Vector" d="M151.914 24.5464L142.027 7.50334H146.705L153.968 20.1382L159.908 7.50334H164.131L155.862 24.7368C154.027 28.5354 152.31 29.5231 150.02 29.5231C149.133 29.5231 148.244 29.3525 147.395 29.0299V24.9853C148.083 25.5543 148.95 25.8631 149.843 25.858C150.691 25.858 151.401 25.534 151.914 24.5464ZM184.575 19.8447H172.209V29.2613H168.165V7.50334H172.209V16.2747H184.575V7.50334H188.618V29.2613H184.575V19.8447ZM199.185 23.7557L211.512 7.50334H215.911V29.2613H211.868V12.763L199.481 29.2613H195.162V7.50334H199.205V23.7557H199.185ZM222.458 29.2428V7.50334H232.272C237.297 7.50334 239.878 9.30549 239.878 12.9098C239.878 15.3955 238.854 17.0456 236.528 17.9182C239.307 18.3916 240.569 20.0998 240.569 22.9254C240.569 27.4208 237.218 29.2626 231.72 29.2626L222.458 29.2428ZM231.681 16.7031C234.222 16.7031 235.839 15.6229 235.839 13.7441C235.839 11.9988 234.636 11.0693 231.779 11.0693H226.498V16.6846H231.681V16.7031ZM231.976 25.6768C235.07 25.6768 236.488 24.709 236.488 22.6411C236.488 20.5732 234.873 19.7389 232.035 19.7389H226.478V25.657L231.976 25.6768ZM260.274 19.8552H249.871V25.6887H261.835V29.2626H245.844V7.50202H261.479V11.0759H249.871V16.2642H260.274V19.8552ZM271.307 22.4838V29.2626H267.264V7.50202H274.797C281.937 7.50202 284.974 9.95072 284.974 14.8679C284.974 19.9385 281.424 22.4824 274.797 22.4824L271.307 22.4838ZM271.307 11.0733V18.9138H275.094C278.841 18.9138 280.774 17.7371 280.774 14.7754C280.774 12.098 279.097 11.0733 275.152 11.0733H271.307ZM308.645 26.7624C307.527 28.0647 304.565 29.4808 300.681 29.4808C293.365 29.4438 288.479 25.2696 288.479 18.2832C288.479 11.7687 293.305 7.1609 300.74 7.1609C304.27 7.1609 306.879 8.21865 308.193 9.10584V14.4871C306.488 12.1469 303.722 10.7295 300.74 10.711C295.836 10.711 292.815 13.7705 292.815 18.3215C292.815 22.5314 295.483 25.8368 300.661 25.9307C304.585 25.9307 307.331 24.1933 308.664 22.0038L308.645 26.7624ZM317.609 23.7557L329.935 7.50334H334.334V29.2613H330.291V12.763L317.885 29.2613H313.565V7.50334H317.609V23.7557ZM357.544 11.0719H349.931V29.2613H345.888V11.0719H338.392V7.50202H357.544V11.0719ZM376.044 19.8552H365.641V25.6887H377.603V29.2626H361.614V7.50202H377.247V11.0759H365.641V16.2642H376.044V19.8552ZM399.849 11.0719H392.236V29.2613H388.192V11.0719H380.698V7.50202H399.849V11.0719ZM105.696 10.8062L110.809 7.17808H93.7341V28.9321H110.806V25.3225H98.6116V19.7362H109.013V16.1267H98.6116V10.8062H105.699H105.696ZM80.8203 15.6705H74.8995V10.8062H84.373L89.4846 7.17808H70.0259V28.9321H80.2094C85.9133 28.9321 89.1897 26.4437 89.1897 22.0924C89.1897 17.95 86.2082 15.6705 80.8203 15.6705ZM79.9714 25.3225H74.8995V19.2999H79.9912C83.0905 19.2999 84.5303 20.3061 84.5303 22.3211C84.5118 24.3533 82.9913 25.3225 79.9714 25.3225ZM124.636 7.17808H115.341V28.9321H120.215V22.7773H124.636C130.577 22.7773 134.268 19.7759 134.268 14.9671C134.268 10.1609 130.577 7.17808 124.636 7.17808ZM124.537 19.1479H120.216V10.8062H124.54C127.657 10.8062 129.375 12.2883 129.375 14.9869C129.375 17.6842 127.655 19.1479 124.537 19.1479ZM61.6512 24.2211C60.3531 24.8956 58.9094 25.2416 57.4466 25.2286C53.0463 25.2286 49.8691 22.2074 49.8691 18.0465C49.8691 13.8856 53.0662 10.8643 57.4479 10.8643C59.0294 10.8409 60.5797 11.3053 61.8878 12.1945L65.3824 9.70479L65.1444 9.51571C63.1122 7.78629 60.3686 6.87398 57.2509 6.87398C53.8754 6.87398 50.796 7.97669 48.6051 9.97055C46.4142 11.9671 45.1714 14.8164 45.1714 17.9328C45.1714 21.0479 46.3746 23.9355 48.5853 25.9889C50.796 28.0409 53.8555 29.1992 57.2112 29.1992C60.7243 29.1992 63.7825 28.0224 65.8755 25.8738L62.7168 23.6327L61.6512 24.2211ZM37.5397 18.0663C37.5397 16.9821 37.4419 15.9006 37.2449 14.8362L33.199 17.7054V18.0848C33.199 25.7615 26.744 31.9943 18.7699 32.0128C10.7971 32.0313 4.32366 25.7985 4.30383 18.1232C4.30383 10.4095 10.7561 4.17671 18.7514 4.17671C21.6721 4.17671 24.5135 5.01366 26.9225 6.60954L30.5731 4.02466C22.5011 -2.26367 10.6781 -1.04726 4.165 6.72325C-2.34811 14.4938 -1.0841 25.8553 6.98787 32.1265C15.0598 38.3963 26.8829 37.1799 33.3761 29.4094C36.0599 26.2385 37.5339 22.2204 37.5397 18.0663Z" fill="#283438"/>
<path id="Vector_2" d="M33.8767 6.92163C34.7611 8.02854 35.5153 9.23348 36.1244 10.5127L19.0338 22.6544L11.8887 18.3414V13.1544L19.0338 17.4674L33.8767 6.92163Z" fill="#283438"/>
</g>
</g>
</g>
</g>
</g>
<defs>
<clipPath id="clip0_0_1">

</clipPath>
</defs>
</svg>
