<svg preserveAspectRatio="none" width="100%" height="100%" overflow="visible" style="display: block;" viewBox="0 0 122 50" fill="none" xmlns="http://www.w3.org/2000/svg">
<g id="Frame 2136139160">
<rect width="122" height="50" rx="12" fill="url(#paint0_radial_0_12)"/>
<g id="ICON">
<path id="Vector" d="M35.813 18.2233C36.3356 18.8997 36.7821 19.6383 37.1386 20.4269L27.0601 27.8701L22.8499 25.225V22.0429L27.0601 24.688L35.813 18.2233Z" fill="var(--fill-0, #283438)"/>
<path id="Vector_2" d="M18.5545 25.0007C18.5545 24.8577 18.5582 24.7161 18.5655 24.5745L16.0139 24.4469C16.0051 24.6303 16 24.8151 16 25.0007C16 28.0618 17.2377 30.8331 19.2397 32.8386L21.0491 31.0253C19.5083 29.4819 18.5545 27.351 18.5545 25.0007Z" fill="var(--fill-0, #283438)"/>
<path id="Vector_3" d="M27.0603 33.5237C26.9176 33.5237 26.7763 33.5201 26.635 33.5127L26.5077 36.0698C26.6907 36.0786 26.8751 36.0838 27.0603 36.0838C30.1148 36.0838 32.8802 34.8434 34.8814 32.8371L33.072 31.0238C31.5319 32.5672 29.4055 33.5237 27.0603 33.5237Z" fill="var(--fill-0, #283438)"/>
<path id="Vector_4" d="M27.0599 16.4758C27.2027 16.4758 27.3439 16.4809 27.4852 16.4875L27.6126 13.9289C27.4296 13.9201 27.2451 13.915 27.0599 13.915C24.0054 13.915 21.24 15.1554 19.2388 17.1616L21.0483 18.9749C22.5883 17.4316 24.7154 16.4758 27.0599 16.4758Z" fill="var(--fill-0, #283438)"/>
<g id="Group 1">
<path id="Vector_5" d="M27.0598 33.5249C26.9171 33.5249 26.7758 33.5212 26.6345 33.5139L26.5071 36.071C26.6901 36.0798 26.8746 36.085 27.0598 36.085C30.1143 36.085 32.8797 34.8445 34.8809 32.8383L33.0714 31.025C31.5314 32.5684 29.405 33.5249 27.0598 33.5249Z" fill="var(--fill-0, #283438)"/>
<path id="Vector_6" d="M33.072 31.025L34.8814 32.8383C34.5173 33.2034 34.1278 33.5431 33.7158 33.8546L32.8171 31.2701C32.9037 31.1902 32.9887 31.1084 33.072 31.025Z" fill="var(--fill-0, #283438)"/>
</g>
<path id="Vector_7" d="M31.855 17.9634L34.0062 16.3745C32.1075 14.837 29.6913 13.915 27.0598 13.915V16.4758C28.8378 16.4758 30.4891 17.0252 31.855 17.9634Z" fill="var(--fill-0, #283438)"/>
<path id="Vector_8" d="M38.1207 24.9995C38.1207 24.3217 38.06 23.6578 37.9436 23.0138L35.5625 24.7721C35.5647 24.8476 35.5654 24.9232 35.5654 24.9995C35.5654 27.5023 34.4836 29.7565 32.7634 31.3174L34.4799 33.2188C36.7161 31.1913 38.1207 28.26 38.1207 24.9995Z" fill="var(--fill-0, #283438)"/>
<path id="Vector_9" d="M27.0598 33.5229C24.5624 33.5229 22.313 32.4388 20.7554 30.715L18.8581 32.4351C20.882 34.6753 23.807 36.083 27.0598 36.083V33.5229Z" fill="var(--fill-0, #283438)"/>
<path id="Vector_10" d="M21.3565 18.6826L19.64 16.7813C17.4046 18.8095 16 21.7407 16 25.0006H18.5553C18.5545 22.4978 19.6364 20.2436 21.3565 18.6826Z" fill="var(--fill-0, #283438)"/>
</g>
<rect id="Rectangle 240654987" x="49.1209" y="13.9381" width="0.884948" height="22.1237" fill="var(--fill-0, #283438)"/>
<path id="Subtract" d="M80.2979 16.4893C81.7394 16.4893 82.9898 16.604 84.0479 16.834C85.1057 17.0487 85.9719 17.3634 86.6465 17.7774C87.3366 18.1761 87.843 18.6592 88.1651 19.2266C88.5023 19.7938 88.6709 20.4225 88.6709 21.1123C88.6709 21.9863 88.4252 22.7071 87.9346 23.2744C87.4593 23.8264 86.8308 24.2254 86.0489 24.4707C86.6929 24.6701 87.2299 24.9157 87.6592 25.2071C88.0884 25.4983 88.4256 25.8203 88.6709 26.1729C88.9316 26.5102 89.1153 26.8707 89.2227 27.2539C89.33 27.6373 89.3838 28.021 89.3838 28.4043C89.3838 30.0297 88.6021 31.2874 87.0381 32.1768C85.4893 33.0662 83.2422 33.5108 80.2979 33.5108C77.3537 33.5108 75.0993 33.0662 73.5352 32.1768C71.9865 31.2874 71.212 30.0297 71.212 28.4043C71.212 28.021 71.2657 27.6373 71.3731 27.2539C71.4804 26.8706 71.6571 26.5102 71.9024 26.1729C72.1631 25.8202 72.5082 25.4984 72.9375 25.2071C73.3669 24.9157 73.9038 24.6701 74.5479 24.4707C73.7658 24.2254 73.1294 23.8265 72.6387 23.2744C72.1634 22.7071 71.9258 21.9863 71.9258 21.1123C71.9259 20.4225 72.0863 19.7938 72.4082 19.2266C72.7456 18.6592 73.2521 18.1761 73.9268 17.7774C74.6168 17.3635 75.4829 17.0487 76.5254 16.834C77.5835 16.604 78.8412 16.4893 80.2979 16.4893ZM105.217 20.0313H95.2569L94.9346 22.8604C95.318 22.7837 95.8092 22.7147 96.4073 22.6534C97.0052 22.592 97.6033 22.5616 98.2012 22.5616C100.869 22.5616 102.893 23.0063 104.273 23.8955C105.654 24.7696 106.344 26.0658 106.344 27.7832C106.344 29.7153 105.585 31.1567 104.066 32.1075C102.548 33.0428 100.348 33.5108 97.4649 33.5108C96.1616 33.5108 94.8661 33.4184 93.5782 33.2344C92.29 33.0504 91.1391 32.8048 90.127 32.4981V29.2784C90.633 29.4624 91.1781 29.6309 91.7608 29.7842C92.3587 29.9222 92.972 30.0369 93.6006 30.1289C94.2293 30.2209 94.8658 30.2981 95.5098 30.3594C96.1692 30.4054 96.8137 30.4287 97.4424 30.4287C98.9756 30.4287 100.148 30.2439 100.961 29.876C101.789 29.4927 102.203 28.8337 102.203 27.8985C102.203 27.4691 102.097 27.1007 101.882 26.794C101.667 26.472 101.322 26.2111 100.847 26.0118C100.371 25.8124 99.7573 25.6672 99.0059 25.5752C98.2546 25.4679 97.3419 25.4141 96.2686 25.4141C95.1647 25.4141 94.1524 25.4679 93.2325 25.5752C92.3126 25.6825 91.5307 25.8126 90.8868 25.9659L91.8067 16.9493H105.217V20.0313ZM70.0918 33.0508H66.0889V20.8828L61.0059 23.2744V19.7784L67.0782 16.9493H70.0918V33.0508ZM80.2979 25.92C78.5805 25.92 77.3228 26.1037 76.5254 26.4717C75.7434 26.8397 75.3526 27.4153 75.3526 28.1973C75.3526 28.9485 75.7437 29.508 76.5254 29.876C77.3228 30.244 78.5805 30.4287 80.2979 30.4287C82.0154 30.4287 83.2658 30.244 84.0479 29.876C84.8449 29.508 85.2432 28.9485 85.2432 28.1973C85.2432 27.4153 84.8451 26.8397 84.0479 26.4717C83.2658 26.1037 82.0154 25.92 80.2979 25.92ZM80.2979 19.5713C78.7647 19.5713 77.653 19.7247 76.9629 20.0313C76.2882 20.338 75.9512 20.814 75.9512 21.458C75.9513 22.1019 76.2883 22.5691 76.9629 22.8604C77.653 23.1517 78.7645 23.2979 80.2979 23.2979C81.8314 23.2979 82.9357 23.1517 83.6104 22.8604C84.3003 22.5691 84.6454 22.1019 84.6455 21.458C84.6455 20.814 84.3005 20.338 83.6104 20.0313C82.9356 19.7246 81.8312 19.5713 80.2979 19.5713Z" fill="var(--fill-0, #283438)"/>
</g>
<defs>
<radialGradient id="paint0_radial_0_12" cx="0" cy="0" r="1" gradientUnits="userSpaceOnUse" gradientTransform="translate(58.5 27.5) rotate(160.942) scale(58.1893 68.2159)">
<stop stop-color="#56FF71"/>
</radialGradient>
</defs>
</svg>
