<svg width="138" height="38" viewBox="0 0 138 38" fill="none" xmlns="http://www.w3.org/2000/svg">

<g id="1440 &#208;&#154;&#208;&#176;&#209;&#128;&#209;&#140;&#208;&#181;&#209;&#128;&#208;&#176; &#208;&#177;&#209;&#131;&#208;&#180;&#209;&#131;&#209;&#137;&#208;&#181;&#208;&#179;&#208;&#190;" clip-path="url(#clip0_0_1)">

<g id="Main Display">
<g id="Logos">
<g id="&#208;&#155;&#208;&#190;&#208;&#179;&#208;&#190; &#208;&#161;&#208;&#177;&#208;&#181;&#209;&#128;&#208;&#176;">
<g id="&#208;&#161;&#208;&#177;&#208;&#181;&#209;&#128;">
<g id="Group">
<path id="Vector" d="M18.6507 18.1315L11.5488 13.6795V19.0326L18.6507 23.4847L35.6495 10.9533C35.0462 9.62452 34.2979 8.38741 33.412 7.24194L18.6507 18.1239V18.1315Z" fill="#283438"/>
<path id="Vector_2" d="M37.3194 18.6559C37.3194 17.5181 37.2125 16.3955 37.0216 15.3111L33.0048 18.2741C33.0048 18.4039 33.0048 18.5261 33.0048 18.6559C33.0048 26.5673 26.5673 33.0048 18.6559 33.0048C10.7445 33.0048 4.30697 26.5673 4.30697 18.6559C4.30697 10.7445 10.7445 4.30697 18.6559 4.30697C21.657 4.30697 24.4443 5.23098 26.7429 6.81173L30.3702 4.13897C27.1705 1.5502 23.0927 0 18.6559 0C8.3543 0 0 8.35429 0 18.6559C0 28.9575 8.3543 37.3118 18.6559 37.3118C28.9575 37.3118 37.3118 28.9575 37.3118 18.6559" fill="#283438"/>
<path id="Vector_3" d="M108.673 11.1625L113.743 7.42822H96.7676V29.8794H113.743V26.1376H101.617V20.3949H111.964V16.6531H101.617V11.1625H108.673Z" fill="#283438"/>
<path id="Vector_4" d="M83.9691 16.1831H78.0738V11.1659H87.4819L92.5525 7.42407H73.2246V29.8753H83.3429C89.0168 29.8753 92.27 27.3018 92.27 22.8192C92.27 18.3366 89.3223 16.1678 83.9691 16.1678M83.1291 26.1334H78.0738V19.9097H83.1291C86.2066 19.9097 87.6346 20.9483 87.6346 23.0254C87.6346 25.1025 86.1226 26.1411 83.1291 26.1411" fill="#283438"/>
<path id="Vector_5" d="M127.504 7.42822H118.264V29.8794H123.105V23.5183H127.504C133.399 23.5183 137.065 20.4179 137.065 15.4618C137.065 10.5057 133.399 7.42822 127.504 7.42822ZM127.397 19.784H123.105V11.1701H127.397C130.497 11.1701 132.208 12.6974 132.208 15.4771C132.208 18.2567 130.497 19.784 127.397 19.784Z" fill="#283438"/>
<path id="Vector_6" d="M64.904 25.0123C63.6593 25.6996 62.216 26.0585 60.7192 26.0585C56.3512 26.0585 53.182 22.9428 53.182 18.6435C53.182 14.3441 56.3512 11.2285 60.7192 11.2285C62.3687 11.2285 63.8502 11.6943 65.1255 12.6107L68.6001 10.0525L68.371 9.85391C66.3397 8.07461 63.6287 7.12769 60.5283 7.12769C57.1683 7.12769 54.1137 8.25788 51.9373 10.3197C49.7456 12.3892 48.5391 15.3063 48.5391 18.5213C48.5391 21.7362 49.738 24.7145 51.922 26.845C54.1137 28.9833 57.153 30.1669 60.4978 30.1669C63.8425 30.1669 67.0422 28.9527 69.1041 26.7305C67.508 25.5545 65.9731 24.4166 65.9731 24.4166L64.8964 25.0047L64.904 25.0123Z" fill="#283438"/>
</g>
</g>
</g>
</g>
</g>
</g>
<defs>
<clipPath id="clip0_0_1">

</clipPath>
</defs>
</svg>
